REM DIRINDEX 1\2,1\3,1\4,1\5
REM DIRNAME folder01,folder02,folder03,folder04,folder05
TITLE ""
FILE "CD2Track06.mp3" MP3
  TRACK 01 AUDIO
    TITLE "5:cjc155_2002"
    INDEX 01 00:00:00
  TRACK 02 AUDIO
    TITLE "0:"
    INDEX 01 00:01:38
  TRACK 03 AUDIO
    TITLE "2:cjc155_2003"
    INDEX 01 00:02:43
  TRACK 04 AUDIO
    TITLE "3:cjc155_2004"
    INDEX 01 00:04:15
  TRACK 05 AUDIO
    TITLE "2:cjc155_2005"
    INDEX 01 00:05:71
  TRACK 06 AUDIO
    TITLE "3:cjc155_2006"
    INDEX 01 00:07:15
  TRACK 07 AUDIO
    TITLE "2:cjc155_2007"
    INDEX 01 00:08:46
  TRACK 08 AUDIO
    TITLE "3:cjc155_2008"
    INDEX 01 00:10:45
  TRACK 09 AUDIO
    TITLE "2:cjc155_2009"
    INDEX 01 00:12:56
  TRACK 10 AUDIO
    TITLE "3:cjc155_2010"
    INDEX 01 00:14:60
  TRACK 11 AUDIO
    TITLE "2:cjc155_2011"
    INDEX 01 00:17:04
  TRACK 12 AUDIO
    TITLE "3:cjc155_2012"
    INDEX 01 00:18:42
  TRACK 13 AUDIO
    TITLE "2:cjc155_2013"
    INDEX 01 00:20:14
  TRACK 14 AUDIO
    TITLE "3:cjc155_2014"
    INDEX 01 00:21:25
  TRACK 15 AUDIO
    TITLE "2:cjc155_2015"
    INDEX 01 00:22:42
  TRACK 16 AUDIO
    TITLE "3:cjc155_2016"
    INDEX 01 00:24:10
  TRACK 17 AUDIO
    TITLE "2:cjc155_2017"
    INDEX 01 00:25:60
  TRACK 18 AUDIO
    TITLE "3:cjc155_2018"
    INDEX 01 00:28:13
  TRACK 19 AUDIO
    TITLE "2:cjc155_2019"
    INDEX 01 00:30:54
  TRACK 20 AUDIO
    TITLE "3:cjc155_2020"
    INDEX 01 00:32:15
  TRACK 21 AUDIO
    TITLE "2:cjc155_2021"
    INDEX 01 00:33:62
  TRACK 22 AUDIO
    TITLE "3:cjc155_2022"
    INDEX 01 00:35:08
  TRACK 23 AUDIO
    TITLE "2:cjc155_2023"
    INDEX 01 00:36:33
  TRACK 24 AUDIO
    TITLE "3:cjc155_2024"
    INDEX 01 00:38:49
  TRACK 25 AUDIO
    TITLE "2:cjc155_2025"
    INDEX 01 00:41:00
  TRACK 26 AUDIO
    TITLE "3:cjc155_2026"
    INDEX 01 00:42:18
  TRACK 27 AUDIO
    TITLE "2:cjc155_2027"
    INDEX 01 00:43:48
  TRACK 28 AUDIO
    TITLE "3:cjc155_2028"
    INDEX 01 00:45:32
  TRACK 29 AUDIO
    TITLE "2:cjc155_2029"
    INDEX 01 00:47:21
  TRACK 30 AUDIO
    TITLE "3:cjc155_2030"
    INDEX 01 00:48:55
  TRACK 31 AUDIO
    TITLE "2:cjc155_2031"
    INDEX 01 00:50:27
  TRACK 32 AUDIO
    TITLE "3:cjc155_2032"
    INDEX 01 00:52:12
  TRACK 33 AUDIO
    TITLE "2:cjc155_2033"
    INDEX 01 00:54:05
  TRACK 34 AUDIO
    TITLE "3:cjc155_2034"
    INDEX 01 00:56:06
  TRACK 35 AUDIO
    TITLE "2:cjc155_2035"
    INDEX 01 00:58:18
  TRACK 36 AUDIO
    TITLE "3:cjc155_2036"
    INDEX 01 00:59:49
  TRACK 37 AUDIO
    TITLE "2:cjc155_2037"
    INDEX 01 01:01:15
  TRACK 38 AUDIO
    TITLE "3:cjc155_2038"
    INDEX 01 01:03:55
  TRACK 39 AUDIO
    TITLE "2:cjc155_2039"
    INDEX 01 01:06:30
  TRACK 40 AUDIO
    TITLE "3:cjc155_2040"
    INDEX 01 01:07:55
  TRACK 41 AUDIO
    TITLE "2:cjc155_2041"
    INDEX 01 01:09:10
  TRACK 42 AUDIO
    TITLE "3:cjc155_2042"
    INDEX 01 01:11:41
  TRACK 43 AUDIO
    TITLE "2:cjc155_2043"
    INDEX 01 01:14:02
  TRACK 44 AUDIO
    TITLE "3:cjc155_2044"
    INDEX 01 01:15:31
  TRACK 45 AUDIO
    TITLE "2:cjc155_2045"
    INDEX 01 01:16:71
  TRACK 46 AUDIO
    TITLE "3:cjc155_2046"
    INDEX 01 01:18:17
  TRACK 47 AUDIO
    TITLE "2:cjc155_2047"
    INDEX 01 01:19:50
  TRACK 48 AUDIO
    TITLE "3:cjc155_2048"
    INDEX 01 01:20:48
  TRACK 49 AUDIO
    TITLE "2:cjc155_2049"
    INDEX 01 01:21:45
  TRACK 50 AUDIO
    TITLE "3:cjc155_2050"
    INDEX 01 01:23:34
  TRACK 51 AUDIO
    TITLE "2:cjc155_2051"
    INDEX 01 01:25:31
  TRACK 52 AUDIO
    TITLE "3:cjc155_2052"
    INDEX 01 01:26:50
  TRACK 53 AUDIO
    TITLE "2:cjc155_2053"
    INDEX 01 01:27:73
  TRACK 54 AUDIO
    TITLE "3:cjc155_2054"
    INDEX 01 01:29:33
  TRACK 55 AUDIO
    TITLE "2:cjc155_2055"
    INDEX 01 01:31:00
  TRACK 56 AUDIO
    TITLE "3:cjc155_2056"
    INDEX 01 01:32:62
  TRACK 57 AUDIO
    TITLE "2:cjc155_2057"
    INDEX 01 01:34:54
  TRACK 58 AUDIO
    TITLE "3:cjc155_2058"
    INDEX 01 01:36:00
  TRACK 59 AUDIO
    TITLE "2:cjc155_2059"
    INDEX 01 01:37:22
  TRACK 60 AUDIO
    TITLE "3:cjc155_2060"
    INDEX 01 01:38:61
  TRACK 61 AUDIO
    TITLE "2:cjc155_2061"
    INDEX 01 01:40:35
  TRACK 62 AUDIO
    TITLE "3:cjc155_2062"
    INDEX 01 01:42:18
  TRACK 63 AUDIO
    TITLE "2:cjc155_2063"
    INDEX 01 01:44:11
  TRACK 64 AUDIO
    TITLE "3:cjc155_2064"
    INDEX 01 01:46:43
  TRACK 65 AUDIO
    TITLE "2:cjc155_2065"
    INDEX 01 01:49:16
  TRACK 66 AUDIO
    TITLE "3:cjc155_2066"
    INDEX 01 01:51:48
  TRACK 67 AUDIO
    TITLE "2:cjc155_2067"
    INDEX 01 01:54:15
  TRACK 68 AUDIO
    TITLE "3:cjc155_2068"
    INDEX 01 01:56:10
  TRACK 69 AUDIO
    TITLE "2:cjc155_2069"
    INDEX 01 01:58:15
  TRACK 70 AUDIO
    TITLE "3:cjc155_2070"
    INDEX 01 01:59:14
  TRACK 71 AUDIO
    TITLE "2:cjc155_2071"
    INDEX 01 02:00:22
  TRACK 72 AUDIO
    TITLE "3:cjc155_2072"
    INDEX 01 02:01:35
  TRACK 73 AUDIO
    TITLE "2:cjc155_2073"
    INDEX 01 02:02:60
  TRACK 74 AUDIO
    TITLE "3:cjc155_2074"
    INDEX 01 02:04:51
  TRACK 75 AUDIO
    TITLE "2:cjc155_2075"
    INDEX 01 02:06:52
  TRACK 76 AUDIO
    TITLE "3:cjc155_2076"
    INDEX 01 02:08:56
  TRACK 77 AUDIO
    TITLE "2:cjc155_2077"
    INDEX 01 02:10:65
  TRACK 78 AUDIO
    TITLE "3:cjc155_2078"
    INDEX 01 02:12:72
  TRACK 79 AUDIO
    TITLE "2:cjc155_2079"
    INDEX 01 02:15:09
  TRACK 80 AUDIO
    TITLE "3:cjc155_2080"
    INDEX 01 02:17:24
  TRACK 81 AUDIO
    TITLE "2:cjc155_2081"
    INDEX 01 02:19:48
  TRACK 82 AUDIO
    TITLE "3:cjc155_2082"
    INDEX 01 02:20:50
  TRACK 83 AUDIO
    TITLE "2:cjc155_2083"
    INDEX 01 02:21:57
  TRACK 84 AUDIO
    TITLE "3:cjc155_2084"
    INDEX 01 02:23:60
  TRACK 85 AUDIO
    TITLE "2:cjc155_2085"
    INDEX 01 02:25:63
  TRACK 86 AUDIO
    TITLE "3:cjc155_2086"
    INDEX 01 02:28:00
  TRACK 87 AUDIO
    TITLE "2:cjc155_2087"
    INDEX 01 02:30:11
  TRACK 88 AUDIO
    TITLE "3:cjc155_2088"
    INDEX 01 02:32:29
  TRACK 89 AUDIO
    TITLE "2:cjc155_2089"
    INDEX 01 02:34:56
  TRACK 90 AUDIO
    TITLE "3:cjc155_2090"
    INDEX 01 02:36:17
  TRACK 91 AUDIO
    TITLE "2:cjc155_2091"
    INDEX 01 02:37:64
  TRACK 92 AUDIO
    TITLE "3:cjc155_2092"
    INDEX 01 02:39:24
  TRACK 93 AUDIO
    TITLE "2:cjc155_2093"
    INDEX 01 02:40:62
  TRACK 94 AUDIO
    TITLE "3:cjc155_2094"
    INDEX 01 02:42:10
  TRACK 95 AUDIO
    TITLE "2:cjc155_2095"
    INDEX 01 02:43:39
  TRACK 96 AUDIO
    TITLE "3:cjc155_2096"
    INDEX 01 02:45:59
  TRACK 97 AUDIO
    TITLE "2:cjc155_2097"
    INDEX 01 02:48:09
  TRACK 98 AUDIO
    TITLE "3:cjc155_2098"
    INDEX 01 02:49:24
  TRACK 99 AUDIO
    TITLE "2:cjc155_2099"
    INDEX 01 02:50:47
  TRACK 100 AUDIO
    TITLE "3:cjc155_2100"
    INDEX 01 02:52:24
  TRACK 101 AUDIO
    TITLE "2:cjc155_2101"
    INDEX 01 02:54:09
  TRACK 102 AUDIO
    TITLE "3:cjc155_2102"
    INDEX 01 02:56:14
  TRACK 103 AUDIO
    TITLE "2:cjc155_2103"
    INDEX 01 02:58:33
  TRACK 104 AUDIO
    TITLE "3:cjc155_2104"
    INDEX 01 03:00:47
  TRACK 105 AUDIO
    TITLE "2:cjc155_2105"
    INDEX 01 03:02:70
  TRACK 106 AUDIO
    TITLE "3:cjc155_2106"
    INDEX 01 03:04:59
  TRACK 107 AUDIO
    TITLE "2:cjc155_2107"
    INDEX 01 03:06:62
  TRACK 108 AUDIO
    TITLE "3:cjc155_2108"
    INDEX 01 03:08:21
  TRACK 109 AUDIO
    TITLE "2:cjc155_2109"
    INDEX 01 03:09:66
  TRACK 110 AUDIO
    TITLE "3:cjc155_2110"
    INDEX 01 03:11:39
  TRACK 111 AUDIO
    TITLE "2:cjc155_2111"
    INDEX 01 03:13:17
  TRACK 112 AUDIO
    TITLE "3:cjc155_2112"
    INDEX 01 03:14:67
  TRACK 113 AUDIO
    TITLE "2:cjc155_2113"
    INDEX 01 03:16:54
  TRACK 114 AUDIO
    TITLE "3:cjc155_2114"
    INDEX 01 03:18:65
  TRACK 115 AUDIO
    TITLE "2:cjc155_2115"
    INDEX 01 03:21:08
  TRACK 116 AUDIO
    TITLE "3:cjc155_2116"
    INDEX 01 03:22:04
  TRACK 117 AUDIO
    TITLE "2:cjc155_2117"
    INDEX 01 03:23:09
  TRACK 118 AUDIO
    TITLE "3:cjc155_2118"
    INDEX 01 03:25:14
  TRACK 119 AUDIO
    TITLE "2:cjc155_2119"
    INDEX 01 03:27:30
  TRACK 120 AUDIO
    TITLE "3:cjc155_2120"
    INDEX 01 03:29:39
  TRACK 121 AUDIO
    TITLE "2:cjc155_2121"
    INDEX 01 03:31:62
  TRACK 122 AUDIO
    TITLE "3:cjc155_2122"
    INDEX 01 03:34:07
  TRACK 123 AUDIO
    TITLE "2:cjc155_2123"
    INDEX 01 03:36:41
  TRACK 124 AUDIO
    TITLE "3:cjc155_2124"
    INDEX 01 03:37:48
  TRACK 125 AUDIO
    TITLE "2:cjc155_2125"
    INDEX 01 03:38:66
  TRACK 126 AUDIO
    TITLE "3:cjc155_2126"
    INDEX 01 03:40:66
  TRACK 127 AUDIO
    TITLE "2:cjc155_2127"
    INDEX 01 03:43:08
  TRACK 128 AUDIO
    TITLE "3:cjc155_2128"
    INDEX 01 03:45:24
  TRACK 129 AUDIO
    TITLE "2:cjc155_2129"
    INDEX 01 03:47:47
  TRACK 130 AUDIO
    TITLE "3:cjc155_2130"
    INDEX 01 03:50:28
  TRACK 131 AUDIO
    TITLE "2:cjc155_2131"
    INDEX 01 03:53:06
  TRACK 132 AUDIO
    TITLE "3:cjc155_2132"
    INDEX 01 03:54:19
  TRACK 133 AUDIO
    TITLE "2:cjc155_2133"
    INDEX 01 03:55:37
  TRACK 134 AUDIO
    TITLE "3:cjc155_2134"
    INDEX 01 03:56:56
  TRACK 135 AUDIO
    TITLE "2:cjc155_2135"
    INDEX 01 03:58:07
  TRACK 136 AUDIO
    TITLE "3:cjc155_2136"
    INDEX 01 03:59:74
  TRACK 137 AUDIO
    TITLE "2:cjc155_2137"
    INDEX 01 04:01:69
  TRACK 138 AUDIO
    TITLE "3:cjc155_2138"
    INDEX 01 04:03:26
  TRACK 139 AUDIO
    TITLE "2:cjc155_2139"
    INDEX 01 04:04:65
  TRACK 140 AUDIO
    TITLE "3:cjc155_2140"
    INDEX 01 04:06:29
  TRACK 141 AUDIO
    TITLE "2:cjc155_2141"
    INDEX 01 04:07:73
  TRACK 142 AUDIO
    TITLE "3:cjc155_2142"
    INDEX 01 04:09:48
  TRACK 143 AUDIO
    TITLE "2:cjc155_2143"
    INDEX 01 04:11:34
  TRACK 144 AUDIO
    TITLE "3:cjc155_2144"
    INDEX 01 04:13:31
  TRACK 145 AUDIO
    TITLE "2:cjc155_2145"
    INDEX 01 04:15:31
  TRACK 146 AUDIO
    TITLE "3:cjc155_2146"
    INDEX 01 04:16:54
  TRACK 147 AUDIO
    TITLE "2:cjc155_2147"
    INDEX 01 04:18:08
  TRACK 148 AUDIO
    TITLE "3:cjc155_2148"
    INDEX 01 04:19:53
  TRACK 149 AUDIO
    TITLE "2:cjc155_2149"
    INDEX 01 04:21:28
  TRACK 150 AUDIO
    TITLE "3:cjc155_2150"
    INDEX 01 04:24:03
  TRACK 151 AUDIO
    TITLE "2:cjc155_2151"
    INDEX 01 04:26:65
  TRACK 152 AUDIO
    TITLE "3:cjc155_2152"
    INDEX 01 04:29:06
  TRACK 153 AUDIO
    TITLE "2:cjc155_2153"
    INDEX 01 04:31:32
  TRACK 154 AUDIO
    TITLE "3:cjc155_2154"
    INDEX 01 04:32:44
  TRACK 155 AUDIO
    TITLE "2:cjc155_2155"
    INDEX 01 04:33:57
  TRACK 156 AUDIO
    TITLE "3:cjc155_2156"
    INDEX 01 04:35:58
  TRACK 157 AUDIO
    TITLE "2:cjc155_2157"
    INDEX 01 04:37:60
  TRACK 158 AUDIO
    TITLE "3:cjc155_2158"
    INDEX 01 04:39:44
  TRACK 159 AUDIO
    TITLE "2:cjc155_2159"
    INDEX 01 04:41:33
  TRACK 160 AUDIO
    TITLE "3:cjc155_2160"
    INDEX 01 04:43:69
  TRACK 161 AUDIO
    TITLE "2:cjc155_2161"
    INDEX 01 04:46:38
  TRACK 162 AUDIO
    TITLE "3:cjc155_2162"
    INDEX 01 04:47:49
  TRACK 163 AUDIO
    TITLE "2:cjc155_2163"
    INDEX 01 04:48:68
  TRACK 164 AUDIO
    TITLE "3:cjc155_2164"
    INDEX 01 04:50:55
  TRACK 165 AUDIO
    TITLE "2:cjc155_2165"
    INDEX 01 04:52:50
  TRACK 166 AUDIO
    TITLE "3:cjc155_2166"
    INDEX 01 04:54:12
  TRACK 167 AUDIO
    TITLE "2:cjc155_2167"
    INDEX 01 04:55:60
  TRACK 168 AUDIO
    TITLE "3:cjc155_2168"
    INDEX 01 04:57:18
  TRACK 169 AUDIO
    TITLE "2:cjc155_2169"
    INDEX 01 04:58:61
  TRACK 170 AUDIO
    TITLE "3:cjc155_2170"
    INDEX 01 05:00:73
  TRACK 171 AUDIO
    TITLE "2:cjc155_2171"
    INDEX 01 05:03:15
  TRACK 172 AUDIO
    TITLE "3:cjc155_2172"
    INDEX 01 05:05:02
  TRACK 173 AUDIO
    TITLE "2:cjc155_2173"
    INDEX 01 05:06:66
  TRACK 174 AUDIO
    TITLE "3:cjc155_2174"
    INDEX 01 05:08:04
  TRACK 175 AUDIO
    TITLE "2:cjc155_2175"
    INDEX 01 05:09:21
  TRACK 176 AUDIO
    TITLE "3:cjc155_2176"
    INDEX 01 05:11:03
  TRACK 177 AUDIO
    TITLE "2:cjc155_2177"
    INDEX 01 05:12:57
  TRACK 178 AUDIO
    TITLE "3:cjc155_2178"
    INDEX 01 05:13:62
  TRACK 179 AUDIO
    TITLE "2:cjc155_2179"
    INDEX 01 05:15:02
  TRACK 180 AUDIO
    TITLE "3:cjc155_2180"
    INDEX 01 05:16:47
  TRACK 181 AUDIO
    TITLE "2:cjc155_2181"
    INDEX 01 05:18:14
  TRACK 182 AUDIO
    TITLE "3:cjc155_2182"
    INDEX 01 05:19:61
  TRACK 183 AUDIO
    TITLE "2:cjc155_2183"
    INDEX 01 05:21:42
  TRACK 184 AUDIO
    TITLE "3:cjc155_2184"
    INDEX 01 05:22:67
  TRACK 185 AUDIO
    TITLE "2:cjc155_2185"
    INDEX 01 05:24:33
  TRACK 186 AUDIO
    TITLE "3:cjc155_2186"
    INDEX 01 05:25:50
  TRACK 187 AUDIO
    TITLE "2:cjc155_2187"
    INDEX 01 05:27:00
  TRACK 188 AUDIO
    TITLE "3:cjc155_2188"
    INDEX 01 05:29:14
  TRACK 189 AUDIO
    TITLE "2:cjc155_2189"
    INDEX 01 05:31:39
  TRACK 190 AUDIO
    TITLE "3:cjc155_2190"
    INDEX 01 05:33:22
  TRACK 191 AUDIO
    TITLE "2:cjc155_2191"
    INDEX 01 05:35:11
  TRACK 192 AUDIO
    TITLE "3:cjc155_2192"
    INDEX 01 05:36:59
  TRACK 193 AUDIO
    TITLE "2:cjc155_2193"
    INDEX 01 05:38:41
  TRACK 194 AUDIO
    TITLE "3:cjc155_2194"
    INDEX 01 05:39:62
  TRACK 195 AUDIO
    TITLE "2:cjc155_2195"
    INDEX 01 05:41:13
  TRACK 196 AUDIO
    TITLE "3:cjc155_2196"
    INDEX 01 05:42:52
  TRACK 197 AUDIO
    TITLE "2:cjc155_2197"
    INDEX 01 05:44:35
  TRACK 198 AUDIO
    TITLE "3:cjc155_2198"
    INDEX 01 05:46:28
  TRACK 199 AUDIO
    TITLE "2:cjc155_2199"
    INDEX 01 05:48:31
  TRACK 200 AUDIO
    TITLE "3:cjc155_2200"
    INDEX 01 05:50:54
  TRACK 201 AUDIO
    TITLE "2:cjc155_2201"
    INDEX 01 05:53:05
  TRACK 202 AUDIO
    TITLE "3:cjc155_2202"
    INDEX 01 05:54:63
  TRACK 203 AUDIO
    TITLE "2:cjc155_2203"
    INDEX 01 05:56:52
  TRACK 204 AUDIO
    TITLE "3:cjc155_2204"
    INDEX 01 05:58:31
  TRACK 205 AUDIO
    TITLE "2:cjc155_2205"
    INDEX 01 06:00:21
  TRACK 206 AUDIO
    TITLE "3:cjc155_2206"
    INDEX 01 06:03:25
  TRACK 207 AUDIO
    TITLE "2:cjc155_2207"
    INDEX 01 06:06:39
  TRACK 208 AUDIO
    TITLE "3:cjc155_2208"
    INDEX 01 06:09:00
  TRACK 209 AUDIO
    TITLE "2:cjc155_2209"
    INDEX 01 06:11:48
  TRACK 210 AUDIO
    TITLE "3:cjc155_2210"
    INDEX 01 06:14:07
  TRACK 211 AUDIO
    TITLE "2:cjc155_2211"
    INDEX 01 06:16:67
  TRACK 212 AUDIO
    TITLE "3:cjc155_2212"
    INDEX 01 06:19:00
  TRACK 213 AUDIO
    TITLE "2:cjc155_2213"
    INDEX 01 06:21:23
  TRACK 214 AUDIO
    TITLE "3:cjc155_2214"
    INDEX 01 06:22:38
  TRACK 215 AUDIO
    TITLE "2:cjc155_2215"
    INDEX 01 06:23:61
  TRACK 216 AUDIO
    TITLE "3:cjc155_2216"
    INDEX 01 06:25:46
  TRACK 217 AUDIO
    TITLE "2:cjc155_2217"
    INDEX 01 06:27:37
  TRACK 218 AUDIO
    TITLE "3:cjc155_2218"
    INDEX 01 06:29:18
  TRACK 219 AUDIO
    TITLE "2:cjc155_2219"
    INDEX 01 06:31:11
  TRACK 220 AUDIO
    TITLE "3:cjc155_2220"
    INDEX 01 06:32:34
  TRACK 221 AUDIO
    TITLE "2:cjc155_2221"
    INDEX 01 06:33:73
  TRACK 222 AUDIO
    TITLE "3:cjc155_2222"
    INDEX 01 06:35:74
  TRACK 223 AUDIO
    TITLE "2:cjc155_2223"
    INDEX 01 06:38:07
  TRACK 224 AUDIO
    TITLE "3:cjc155_2224"
    INDEX 01 06:39:11
  TRACK 225 AUDIO
    TITLE "2:cjc155_2225"
    INDEX 01 06:40:28
  TRACK 226 AUDIO
    TITLE "3:cjc155_2226"
    INDEX 01 06:42:13
  TRACK 227 AUDIO
    TITLE "2:cjc155_2227"
    INDEX 01 06:44:06
  TRACK 228 AUDIO
    TITLE "3:cjc155_2228"
    INDEX 01 06:46:13
  TRACK 229 AUDIO
    TITLE "2:cjc155_2229"
    INDEX 01 06:48:29
  TRACK 230 AUDIO
    TITLE "3:cjc155_2230"
    INDEX 01 06:50:07
  TRACK 231 AUDIO
    TITLE "2:cjc155_2231"
    INDEX 01 06:51:55
  TRACK 232 AUDIO
    TITLE "3:cjc155_2232"
    INDEX 01 06:52:68
  TRACK 233 AUDIO
    TITLE "2:cjc155_2233"
    INDEX 01 06:54:10
  TRACK 234 AUDIO
    TITLE "3:cjc155_2234"
    INDEX 01 06:56:00
  TRACK 235 AUDIO
    TITLE "2:cjc155_2235"
    INDEX 01 06:57:69
  TRACK 236 AUDIO
    TITLE "3:cjc155_2236"
    INDEX 01 06:59:45
  TRACK 237 AUDIO
    TITLE "2:cjc155_2237"
    INDEX 01 07:01:24
  TRACK 238 AUDIO
    TITLE "3:cjc155_2238"
    INDEX 01 07:03:11
  TRACK 239 AUDIO
    TITLE "2:cjc155_2239"
    INDEX 01 07:05:04
  TRACK 240 AUDIO
    TITLE "3:cjc155_2240"
    INDEX 01 07:06:55
  TRACK 241 AUDIO
    TITLE "0:"
    INDEX 01 07:08:26
